<mxfile host="app.diagrams.net" modified="2020-11-25T10:22:08.548Z" agent="5.0 (Windows NT 6.1; Win64; x64) AppleWebKit/537.36 (KHTML, like Gecko) Chrome/86.0.4240.198 Safari/537.36" etag="7JE96guvrKfIEtEbipLm" version="13.10.1" type="github">
  <diagram id="toPAOQZPl0oIFCjV4R8k" name="Page-1">
    <mxGraphModel dx="2409" dy="607" grid="1" gridSize="10" guides="1" tooltips="1" connect="1" arrows="1" fold="1" page="1" pageScale="1" pageWidth="1169" pageHeight="827" math="0" shadow="0">
      <root>
        <mxCell id="0" />
        <mxCell id="1" parent="0" />
        <mxCell id="B4uO9kgHyZsTL8DwEbhY-1" style="edgeStyle=orthogonalEdgeStyle;rounded=0;orthogonalLoop=1;jettySize=auto;html=1;exitX=1;exitY=0.5;exitDx=0;exitDy=0;entryX=0.011;entryY=0.161;entryDx=0;entryDy=0;entryPerimeter=0;" edge="1" parent="1" source="B4uO9kgHyZsTL8DwEbhY-2" target="B4uO9kgHyZsTL8DwEbhY-5">
          <mxGeometry relative="1" as="geometry">
            <mxPoint x="-355" y="444" as="targetPoint" />
          </mxGeometry>
        </mxCell>
        <mxCell id="B4uO9kgHyZsTL8DwEbhY-2" value="&lt;font style=&quot;font-size: 18px&quot;&gt;&lt;b&gt;静态&lt;/b&gt;&lt;b&gt;排放&lt;br&gt;源清单&lt;/b&gt;&lt;b&gt;&lt;br&gt;&lt;/b&gt;&lt;/font&gt;" style="rounded=1;whiteSpace=wrap;html=1;fillColor=#FFD966;" vertex="1" parent="1">
          <mxGeometry x="-600" y="413" width="130" height="60" as="geometry" />
        </mxCell>
        <mxCell id="B4uO9kgHyZsTL8DwEbhY-3" style="edgeStyle=orthogonalEdgeStyle;rounded=0;orthogonalLoop=1;jettySize=auto;html=1;exitX=1;exitY=0.5;exitDx=0;exitDy=0;entryX=-0.011;entryY=0.889;entryDx=0;entryDy=0;entryPerimeter=0;" edge="1" parent="1" source="B4uO9kgHyZsTL8DwEbhY-4" target="B4uO9kgHyZsTL8DwEbhY-5">
          <mxGeometry relative="1" as="geometry" />
        </mxCell>
        <mxCell id="B4uO9kgHyZsTL8DwEbhY-4" value="&lt;font style=&quot;font-size: 18px&quot;&gt;&lt;b&gt;WRF&lt;br&gt;&lt;/b&gt;&lt;b&gt;气象模型&lt;/b&gt;&lt;/font&gt;" style="rounded=1;whiteSpace=wrap;html=1;fillColor=#00FF00;" vertex="1" parent="1">
          <mxGeometry x="-600" y="544" width="130" height="60" as="geometry" />
        </mxCell>
        <mxCell id="B4uO9kgHyZsTL8DwEbhY-5" value="&lt;font style=&quot;font-size: 24px&quot;&gt;&lt;b&gt;数值模式&lt;br&gt;CMAQ/CAMx&lt;/b&gt;&lt;/font&gt;" style="whiteSpace=wrap;html=1;aspect=fixed;fillColor=#B5739D;" vertex="1" parent="1">
          <mxGeometry x="-355" y="414" width="180" height="180" as="geometry" />
        </mxCell>
        <mxCell id="B4uO9kgHyZsTL8DwEbhY-6" value="&lt;span style=&quot;font-size: 18px&quot;&gt;&lt;b&gt;预报&lt;br&gt;&lt;br&gt;&lt;/b&gt;&lt;/span&gt;&lt;font style=&quot;font-size: 18px&quot;&gt;&lt;b&gt;溯源&lt;/b&gt;&lt;/font&gt;" style="rounded=0;whiteSpace=wrap;html=1;fillColor=#FFFF00;" vertex="1" parent="1">
          <mxGeometry x="-100" y="414" width="50" height="180" as="geometry" />
        </mxCell>
        <mxCell id="B4uO9kgHyZsTL8DwEbhY-7" value="" style="shape=flexArrow;endArrow=classic;html=1;entryX=0;entryY=0.55;entryDx=0;entryDy=0;entryPerimeter=0;fillColor=#FFB570;" edge="1" parent="1">
          <mxGeometry width="50" height="50" relative="1" as="geometry">
            <mxPoint x="-175" y="504" as="sourcePoint" />
            <mxPoint x="-100" y="503" as="targetPoint" />
          </mxGeometry>
        </mxCell>
        <mxCell id="B4uO9kgHyZsTL8DwEbhY-8" style="edgeStyle=orthogonalEdgeStyle;rounded=0;orthogonalLoop=1;jettySize=auto;html=1;exitX=1;exitY=0.5;exitDx=0;exitDy=0;entryX=0.011;entryY=0.161;entryDx=0;entryDy=0;entryPerimeter=0;" edge="1" parent="1" source="B4uO9kgHyZsTL8DwEbhY-9" target="B4uO9kgHyZsTL8DwEbhY-12">
          <mxGeometry relative="1" as="geometry">
            <mxPoint x="440" y="444" as="targetPoint" />
          </mxGeometry>
        </mxCell>
        <mxCell id="B4uO9kgHyZsTL8DwEbhY-9" value="&lt;font style=&quot;font-size: 18px&quot;&gt;&lt;b&gt;动态&lt;/b&gt;&lt;b&gt;排放&lt;br&gt;源清单&lt;/b&gt;&lt;b&gt;&lt;br&gt;&lt;/b&gt;&lt;/font&gt;" style="rounded=1;whiteSpace=wrap;html=1;fillColor=#FFD966;" vertex="1" parent="1">
          <mxGeometry x="195" y="413" width="130" height="60" as="geometry" />
        </mxCell>
        <mxCell id="B4uO9kgHyZsTL8DwEbhY-10" style="edgeStyle=orthogonalEdgeStyle;rounded=0;orthogonalLoop=1;jettySize=auto;html=1;exitX=1;exitY=0.5;exitDx=0;exitDy=0;entryX=-0.011;entryY=0.889;entryDx=0;entryDy=0;entryPerimeter=0;" edge="1" parent="1" source="B4uO9kgHyZsTL8DwEbhY-11" target="B4uO9kgHyZsTL8DwEbhY-12">
          <mxGeometry relative="1" as="geometry" />
        </mxCell>
        <mxCell id="B4uO9kgHyZsTL8DwEbhY-11" value="&lt;font style=&quot;font-size: 18px&quot;&gt;&lt;b&gt;WRF&lt;br&gt;&lt;/b&gt;&lt;b&gt;气象模型&lt;/b&gt;&lt;/font&gt;" style="rounded=1;whiteSpace=wrap;html=1;fillColor=#00FF00;" vertex="1" parent="1">
          <mxGeometry x="195" y="544" width="130" height="60" as="geometry" />
        </mxCell>
        <mxCell id="B4uO9kgHyZsTL8DwEbhY-12" value="&lt;font style=&quot;font-size: 24px&quot;&gt;&lt;b&gt;数值模式&lt;br&gt;CMAQ/CAMx&lt;/b&gt;&lt;/font&gt;" style="whiteSpace=wrap;html=1;aspect=fixed;fillColor=#B5739D;" vertex="1" parent="1">
          <mxGeometry x="440" y="414" width="180" height="180" as="geometry" />
        </mxCell>
        <mxCell id="B4uO9kgHyZsTL8DwEbhY-13" value="&lt;span style=&quot;font-size: 18px&quot;&gt;&lt;b&gt;预报&lt;br&gt;&lt;br&gt;&lt;/b&gt;&lt;/span&gt;&lt;font style=&quot;font-size: 18px&quot;&gt;&lt;b&gt;溯源&lt;/b&gt;&lt;/font&gt;" style="rounded=0;whiteSpace=wrap;html=1;fillColor=#FFFF00;" vertex="1" parent="1">
          <mxGeometry x="695" y="414" width="50" height="180" as="geometry" />
        </mxCell>
        <mxCell id="B4uO9kgHyZsTL8DwEbhY-14" value="" style="shape=flexArrow;endArrow=classic;html=1;entryX=0;entryY=0.55;entryDx=0;entryDy=0;entryPerimeter=0;fillColor=#FFB570;" edge="1" parent="1">
          <mxGeometry width="50" height="50" relative="1" as="geometry">
            <mxPoint x="620" y="504" as="sourcePoint" />
            <mxPoint x="695" y="503" as="targetPoint" />
          </mxGeometry>
        </mxCell>
        <mxCell id="B4uO9kgHyZsTL8DwEbhY-15" style="edgeStyle=orthogonalEdgeStyle;rounded=0;orthogonalLoop=1;jettySize=auto;html=1;exitX=0.5;exitY=1;exitDx=0;exitDy=0;entryX=0.5;entryY=0;entryDx=0;entryDy=0;" edge="1" parent="1" source="B4uO9kgHyZsTL8DwEbhY-16" target="B4uO9kgHyZsTL8DwEbhY-9">
          <mxGeometry relative="1" as="geometry" />
        </mxCell>
        <mxCell id="B4uO9kgHyZsTL8DwEbhY-16" value="&lt;b&gt;&lt;font style=&quot;font-size: 18px&quot;&gt;固定污染源&lt;/font&gt;&lt;/b&gt;" style="rounded=0;whiteSpace=wrap;html=1;fillColor=#B3B3B3;" vertex="1" parent="1">
          <mxGeometry x="50" y="303" width="120" height="60" as="geometry" />
        </mxCell>
        <mxCell id="B4uO9kgHyZsTL8DwEbhY-17" style="edgeStyle=orthogonalEdgeStyle;rounded=0;orthogonalLoop=1;jettySize=auto;html=1;exitX=0.5;exitY=1;exitDx=0;exitDy=0;" edge="1" parent="1" source="B4uO9kgHyZsTL8DwEbhY-18">
          <mxGeometry relative="1" as="geometry">
            <mxPoint x="260" y="413" as="targetPoint" />
          </mxGeometry>
        </mxCell>
        <mxCell id="B4uO9kgHyZsTL8DwEbhY-18" value="&lt;font style=&quot;font-size: 18px&quot;&gt;&lt;b&gt;机动车源&lt;/b&gt;&lt;/font&gt;" style="rounded=0;whiteSpace=wrap;html=1;fillColor=#EA6B66;" vertex="1" parent="1">
          <mxGeometry x="200" y="303" width="120" height="60" as="geometry" />
        </mxCell>
        <mxCell id="B4uO9kgHyZsTL8DwEbhY-19" style="edgeStyle=orthogonalEdgeStyle;rounded=0;orthogonalLoop=1;jettySize=auto;html=1;exitX=0.5;exitY=1;exitDx=0;exitDy=0;" edge="1" parent="1" source="B4uO9kgHyZsTL8DwEbhY-20">
          <mxGeometry relative="1" as="geometry">
            <mxPoint x="260" y="413" as="targetPoint" />
          </mxGeometry>
        </mxCell>
        <mxCell id="B4uO9kgHyZsTL8DwEbhY-20" value="&lt;font style=&quot;font-size: 18px&quot;&gt;&lt;b&gt;船舶源&lt;/b&gt;&lt;/font&gt;" style="rounded=0;whiteSpace=wrap;html=1;fillColor=#33FFFF;" vertex="1" parent="1">
          <mxGeometry x="350" y="303" width="120" height="60" as="geometry" />
        </mxCell>
        <mxCell id="B4uO9kgHyZsTL8DwEbhY-22" value="" style="endArrow=none;dashed=1;html=1;dashPattern=1 3;strokeWidth=2;strokeColor=#0000CC;" edge="1" parent="1">
          <mxGeometry width="50" height="50" relative="1" as="geometry">
            <mxPoint y="630" as="sourcePoint" />
            <mxPoint y="290" as="targetPoint" />
          </mxGeometry>
        </mxCell>
      </root>
    </mxGraphModel>
  </diagram>
</mxfile>
